<?xml version="1.0" encoding="UTF-8"?>
<svg width="1200pt" height="1200pt" version="1.1" viewBox="0 0 1200 1200" xmlns="http://www.w3.org/2000/svg">
 <g>
  <path d="m972.31 409.45c-0.69531-3.707-3.2266-8.7109-11.449-11.508l-18.648-6.3477 16.859-13.969-75.422-91.066v-0.023438l-0.011719-0.011718-11.281-13.633-0.070313 0.058594c-1.2852-1.6797-3.1211-2.9648-5.3633-3.3945l-73.848-13.992-0.023437 75.18c0 2.293 0.875 4.3438 2.2812 5.9297l-0.035157 0.046875 86.723 104.72 16.738-13.859 2.7617 19.523c0.96094 6.8164 5.4844 13.906 13.453 14.375 3.9609 0.25391 7.9688-1.2969 11.902-4.5703l38.93-32.219c1.3438-1.1211 8.0156-7.1055 6.5039-15.242zm-59.184-17.172-42.324-51.086 20.438-17.293 42.492 51.324zm-37.574-87.336 4.2227 5.1016-20.438 17.305-4.4023-5.3398zm-64.5-27.66 45.59 8.6523-45.613 37.754zm15.156 68.508 14.844-12.301 58.223 70.262-14.879 12.336zm92.531 94.402-3.2031-22.465 13.824-11.484 21.562 7.4023z"/>
  <path d="m702.25 255.02c-7.0312-2.1719-11.16-9.7305-9-16.922 1.9688-7.0195 9.5391-11.16 16.738-9 7.2227 2.1602 11.172 9.7305 9.1914 16.738-1.8008 5.9414-7.1992 9.7305-12.961 9.7305-1.2695-0.007812-2.7109-0.19922-3.9688-0.54687z"/>
  <path d="m748.6 275.3c-7.0312-2.1719-11.16-9.7305-9-16.922 1.9688-7.0195 9.5391-11.172 16.738-9 7.2227 2.1602 11.172 9.7188 9.1914 16.738-1.8008 5.9414-7.1992 9.7188-12.961 9.7188-1.2812-0.007813-2.7227-0.16406-3.9688-0.53516z"/>
  <path d="m651.68 243.85c-7.3789-1.0781-12.422-7.9062-11.34-15.289 1.0938-7.3789 7.9219-12.422 15.301-11.34 7.3672 1.0781 12.422 7.9219 11.34 15.301-0.91016 6.6602-6.6602 11.508-13.32 11.508-0.55078 0-1.2734 0-1.9805-0.17969z"/>
  <path d="m596.44 239.21c-7.3789-1.0781-12.406-7.9219-11.34-15.301 1.0938-7.3672 7.9336-12.422 15.312-11.34 7.3555 1.0938 12.406 7.9219 11.328 15.301-0.91016 6.6719-6.6602 11.52-13.32 11.52-0.54297-0.011719-1.2617-0.011719-1.9805-0.17969z"/>
  <path d="m229.39 559.39c-7.3672-1.0664-12.422-7.9219-11.328-15.289 1.0781-7.3789 7.9062-12.613 15.289-11.52 7.2109 1.0781 12.422 7.9062 11.34 15.289-0.89844 6.6602-6.6719 11.52-13.32 11.52h-1.9805z"/>
  <path d="m222.5 612.49c-7.3672-1.0664-12.422-7.8945-11.328-15.277 1.0781-7.3789 7.9062-12.613 15.289-11.531 7.2109 1.0781 12.422 7.9219 11.34 15.301-0.89844 6.6602-6.6719 11.508-13.32 11.508h-1.9805z"/>
  <path d="m238.75 507.02c-7.0195-2.1719-11.16-9.5508-9-16.754 1.9805-7.1992 9.5391-11.328 16.738-9.1797 7.0312 2.1602 11.172 9.5391 9.1914 16.738-1.8008 5.9414-7.2109 9.7305-13.152 9.7305-1.0664 0.003906-2.5078-0.1875-3.7773-0.53516z"/>
  <path d="m255.68 456.61c-6.8398-3.0469-9.8984-11.148-6.6602-18v0.19141c3.0586-6.8281 10.969-9.8984 17.809-6.8281 6.8398 3.2383 9.7305 11.148 6.6602 18-2.3281 4.8594-7.1992 7.9062-12.238 7.9062-1.9805-0.011718-3.7812-0.55078-5.5703-1.2695z"/>
  <path d="m279.45 409.11c-6.3008-4.1406-8.1133-12.422-4.1523-18.73 4.1523-6.2891 12.422-8.1016 18.73-3.9609 6.3008 3.9609 8.0898 12.254 4.1406 18.551-2.6992 4.1406-7.0195 6.2891-11.52 6.2891-2.5312 0-5.0391-0.72266-7.1992-2.1484z"/>
  <path d="m309.68 365.35c-5.5781-4.8594-6.1211-13.32-1.2617-19.078 4.8594-5.5781 13.32-6.1211 19.078-1.2461 5.5938 4.8477 6.1211 13.309 1.2617 19.078-2.6992 3.0586-6.4805 4.6797-10.262 4.6797-3.0547-0.011718-6.1289-1.082-8.8164-3.4336z"/>
  <path d="m345.85 326.47c-4.8594-5.5781-4.1406-14.219 1.4414-19.078 5.5781-4.8594 14.23-4.1406 19.078 1.4414 4.8594 5.5781 4.3203 14.039-1.4297 19.078-2.5312 2.1719-5.5938 3.2539-8.832 3.2539-3.7773-0.003907-7.5469-1.6367-10.258-4.6953z"/>
  <path d="m387.45 292.99c-4.1523-6.1211-2.3398-14.578 3.9492-18.527 6.3008-4.1406 14.578-2.3516 18.719 3.9492 3.9727 6.3008 2.1719 14.578-4.1406 18.73-2.1484 1.4414-4.8594 2.1602-7.3672 2.1602-4.332-0.011719-8.6406-2.1602-11.16-6.3125z"/>
  <path d="m432.97 265.82c-3.0586-6.6719 0-14.762 6.6719-17.832 6.8281-3.0469 14.941-0.16797 18 6.6719 3.0586 6.8281 0 14.746-6.6719 17.809-1.7891 0.89844-3.7695 1.2617-5.5781 1.2617-5.2109 0.007813-10.07-2.8828-12.422-7.9102z"/>
  <path d="m482.11 245.47c-2.1484-7.1992 1.9922-14.578 9.1914-16.738 7.1992-2.1602 14.762 1.9805 16.738 9.1797 2.1719 7.1992-1.9688 14.578-9.1797 16.754-1.2461 0.35938-2.5195 0.53906-3.7695 0.53906-5.7695-0.003906-11.184-3.7969-12.98-9.7344z"/>
  <path d="m533.77 232.33c-1.0781-7.3672 3.9609-14.23 11.328-15.301 7.3789-1.0664 14.23 4.1523 15.301 11.531 1.0781 7.3789-4.1406 14.219-11.52 15.289-0.53906 0-1.2461 0.17969-1.7891 0.17969-6.6484 0-12.41-5.0391-13.32-11.699z"/>
  <path d="m544.95 981.14c-7.3789-1.0781-12.422-7.9219-11.34-15.301 0.88672-7.3789 7.7383-12.406 15.121-11.34 7.3789 0.89844 12.613 7.7383 11.52 15.301-0.89844 6.6602-6.6602 11.531-13.32 11.531-0.72266-0.011719-1.2617-0.011719-1.9805-0.19141z"/>
  <path d="m598.09 987.39c-7.3789-1.0781-12.422-7.9219-11.34-15.301 0.89844-7.3789 7.7383-12.406 15.121-11.34 7.3789 0.89844 12.613 7.7383 11.52 15.301-0.89844 6.6602-6.6602 11.531-13.309 11.531-0.74609 0.003906-1.2852 0.003906-1.9922-0.19141z"/>
  <path d="m491.11 969.45c-7.0078-1.9922-11.148-9.5508-9.168-16.738 2.1602-7.0312 9.7188-11.172 16.738-9.2031 7.1992 2.1719 11.34 9.7188 9.1797 16.934-1.6211 5.7617-7.0195 9.5391-12.961 9.5391-1.2578 0.007813-2.5312-0.18359-3.7891-0.53125z"/>
  <path d="m439.64 950.18c-6.8398-3.0703-9.7305-10.969-6.6719-17.832 3.0586-6.8281 10.992-9.707 17.82-6.6367 6.8398 3.0469 9.7305 11.137 6.6719 17.797-2.3516 5.0508-7.2109 7.9336-12.254 7.9336-1.9688 0-3.7656-0.375-5.5664-1.2617z"/>
  <path d="m391.39 923.89c-6.2891-4.1406-8.1016-12.406-4.1406-18.719 3.9609-6.3008 12.422-8.1133 18.719-3.9609 6.1328 3.9609 7.9219 12.238 3.9727 18.539-2.5312 3.9609-6.8398 6.3008-11.34 6.3008-2.5156 0.011719-5.0391-0.71875-7.2109-2.1602z"/>
  <path d="m347.29 890.77c-5.7617-4.8477-6.3008-13.32-1.4414-19.066 4.8594-5.6055 13.5-6.1445 19.094-1.2617 5.5781 4.8477 6.2891 13.309 1.4297 19.066-2.6992 3.0586-6.4805 4.5-10.262 4.5-3.2422 0-6.2891-1.0664-8.8203-3.2383z"/>
  <path d="m308.41 851.89c-5.0391-5.7461-4.3086-14.219 1.2617-19.066 5.5781-4.8711 14.219-4.332 19.078 1.4297 4.8477 5.5781 4.3203 14.039-1.4297 18.898-2.5312 2.3281-5.5938 3.4062-8.832 3.4062-3.7656 0.011718-7.543-1.6055-10.078-4.668z"/>
  <path d="m275.29 807.79c-3.9609-6.3008-2.1602-14.578 4.1523-18.73 6.1211-3.9609 14.578-2.1484 18.527 4.1523 4.1406 6.2891 2.1719 14.578-3.9492 18.73-2.3398 1.4297-4.8594 1.9805-7.3789 1.9805-4.5 0-8.8203-2.1719-11.352-6.1328z"/>
  <path d="m248.83 759.56c-3.0586-6.8398 0-14.953 6.6602-18 6.8398-3.0703 14.953 0 18 6.6602 3.0703 6.8398 0 14.762-6.8281 18-1.8008 0.73047-3.6016 1.0781-5.5781 1.0781-5.0547-0.007812-9.9023-2.875-12.254-7.7383z"/>
  <path d="m229.59 707.89c-1.9805-7.1875 1.9805-14.746 9.1797-16.738 7.2109-2.1719 14.762 1.9805 16.738 9.1797 2.1719 7.0078-1.9688 14.594-9.168 16.738-1.2617 0.37109-2.5312 0.53906-3.793 0.53906-5.7695 0.003906-11.172-3.7773-12.957-9.7188z"/>
  <path d="m218.06 654.07c-1.0938-7.3555 3.9609-14.23 11.328-15.289 7.3789-1.0664 14.219 4.1523 15.301 11.52 1.0781 7.3789-4.1406 14.219-11.52 15.133-0.53906 0.17969-1.2617 0.17969-1.8008 0.17969-6.6484-0.007812-12.406-4.8828-13.309-11.543z"/>
  <path d="m639.61 969.79c-0.88672-7.3672 4.1523-14.23 11.531-15.301 7.3672-1.0664 14.207 4.1523 15.301 11.52 1.0664 7.3789-4.1523 14.219-11.52 15.133-0.55078 0.19141-1.2617 0.19141-1.8125 0.19141-6.6602-0.011719-12.398-4.8828-13.5-11.543zm52.379-9.3477c-1.9805-7.2227 1.9922-14.762 9.1914-16.738 7.1992-2.1719 14.762 1.9688 16.754 9.168 2.1484 7.0195-1.9805 14.578-9.2031 16.738-1.2461 0.37109-2.5078 0.55078-3.7695 0.55078-5.75 0-11.172-3.793-12.973-9.7188zm50.578-16.73c-3.2383-6.8633-0.17969-14.953 6.6602-18 6.6719-3.0703 14.762 0 17.832 6.6367 3.0469 6.8633 0.16797 14.762-6.6719 18-1.7891 0.73047-3.6016 1.2617-5.5664 1.2617-5.0508 0-10.094-3.0508-12.254-7.8984zm47.535-23.961c-4.1523-6.3008-2.1602-14.578 3.9609-18.539 6.2773-4.1523 14.762-2.3398 18.719 3.9609 3.9492 6.3008 2.1719 14.578-3.9492 18.719h-0.19141c-2.1602 1.4414-4.6914 2.1719-7.1992 2.1719-4.5-0.003906-8.832-2.3438-11.34-6.3125zm43.727-30.242c-5.0391-5.7461-4.3203-14.219 1.2617-19.066 5.5781-4.8711 14.039-4.332 19.078 1.2617 4.8594 5.7461 4.3086 14.219-1.4531 19.066-2.5078 2.3281-5.5664 3.4336-8.7969 3.4336-3.7773 0.007813-7.582-1.6367-10.09-4.6953zm38.891-36.18c-5.7617-5.0391-6.2891-13.5-1.4414-19.078 4.8594-5.5781 13.5-6.3008 19.066-1.4297 5.6055 4.8477 6.3125 13.5 1.4531 19.066-2.6992 3.0586-6.4688 4.6797-10.246 4.6797-3.2617 0-6.3242-1.0781-8.832-3.2383zm33.289-41.387c-6.1211-4.1523-7.9062-12.434-3.9492-18.73 3.9492-6.2891 12.422-8.1133 18.719-3.9609 6.1211 3.9609 7.9336 12.422 3.9492 18.539-2.5078 4.1523-6.8281 6.3008-11.328 6.3008-2.5312 0.011719-5.0625-0.72266-7.3906-2.1484zm27.203-45.723c-6.6719-3.0586-9.7305-11.16-6.4922-17.82 3.0586-6.8281 10.992-9.8984 17.82-6.6719 6.6719 3.0703 9.7188 10.992 6.6719 17.832-2.3633 5.0391-7.2227 7.9219-12.254 7.9219-1.9766 0-3.7773-0.37109-5.7461-1.2617zm20.508-49.152c-7.2109-1.9688-11.34-9.5273-9.1797-16.559 1.9688-7.1875 9.5273-11.328 16.738-9.1797 7.2109 1.9922 11.328 9.5391 9.1797 16.738-1.7891 5.7617-7.1992 9.7305-12.961 9.7305-1.2695-0.007812-2.5156-0.1875-3.7773-0.73047zm13.117-51.465c-7.3555-1.0938-12.59-7.9219-11.508-15.121v-0.19141c1.0938-7.3672 7.9219-12.422 15.301-11.34 7.3672 1.0938 12.59 7.9219 11.52 15.301-1.0938 6.6719-6.8281 11.52-13.5 11.52-0.53906 0-1.2617 0-1.8125-0.16797z"/>
  <path d="m955.51 548.77c-1.0664-7.3789 4.1523-14.219 11.531-15.301 7.3789-1.0781 14.219 3.9727 15.121 11.352l0.17969 0.16797c0.88672 7.3789-4.1289 14.23-11.508 15.121-0.73047 0.19141-1.2617 0.19141-1.9922 0.19141-6.6602-0.011719-12.418-4.8594-13.332-11.531z"/>
  <path d="m941.98 496.03c-1.0781-7.3789 4.1523-14.219 11.531-15.301 7.3789-1.0781 14.23 3.9727 15.121 11.352l0.17969 0.17969c0.89844 7.3789-4.1406 14.219-11.52 15.121-0.71875 0.19141-1.2617 0.19141-1.9805 0.19141-6.6719-0.011719-12.422-4.8711-13.332-11.543z"/>
  <path d="m962.05 600.07c-1.0664-7.3789 4.1523-14.207 11.531-15.289 7.3789-1.0938 14.219 3.9727 15.121 11.352l0.17969 0.17969c0.88672 7.3789-4.1289 14.207-11.508 15.121-0.73047 0.17969-1.2617 0.17969-1.9922 0.17969-6.6602-0.007812-12.418-4.8711-13.332-11.543z"/>
  <path d="m552.59 679.84c-13.414 0-24.938 7.957-30.324 19.344-6.5625-30.191-33.445-52.922-65.605-52.922-37.031 0-67.176 30.145-67.176 67.188 0 37.055 30.145 67.211 67.176 67.211 32.148 0 59.039-22.738 65.605-52.934 5.3867 11.398 16.906 19.367 30.324 19.367 18.551 0 33.648-15.098 33.648-33.648-0.003906-18.52-15.098-33.605-33.648-33.605zm-95.93 73.824c-22.152 0-40.176-18.047-40.176-40.211 0-22.164 18.023-40.188 40.176-40.188 22.176 0 40.199 18.023 40.199 40.188 0 22.164-18.035 40.211-40.199 40.211zm95.93-33.562c-3.6484 0-6.625-2.9883-6.625-6.6484 0-3.6484 2.9766-6.6133 6.625-6.6133 3.6719 0 6.6484 2.9648 6.6484 6.6133-0.003906 3.6602-2.9922 6.6484-6.6484 6.6484z"/>
  <path d="m559.79 651.89c-29.652 0-53.773-24.121-53.773-53.746 0-29.652 24.133-53.773 53.773-53.773 29.641 0 53.762 24.133 53.762 53.773 0.007813 29.629-24.109 53.746-53.762 53.746zm0-80.531c-14.762 0-26.773 12.012-26.773 26.773 0 14.746 12.012 26.746 26.773 26.746 14.746 0 26.762-12 26.762-26.746 0.007813-14.762-12.004-26.773-26.762-26.773z"/>
  <path d="m600.07 299.3c-165.34 0-299.84 134.5-299.84 299.82 0 165.35 134.51 299.86 299.84 299.86 165.31 0 299.82-134.51 299.82-299.86 0-165.32-134.51-299.82-299.82-299.82zm-158.9 78.492c2.6055 4.8242 3.6953 10.309 3.0117 15.875-0.875 7.0938-4.4648 13.43-10.094 17.82-9.5898 7.4648-22.656 7.2734-32.062 0.52734 11.93-12.598 25.02-24.047 39.145-34.223zm393.3 360.26c-12.059-12.18-15.574-31.152-7.1289-47.051 7.2852-13.668 21.395-21.254 35.914-21.156-6.5156 24.254-16.246 47.113-28.785 68.207zm-30.961-59.734c-15.023 28.297-7.6445 62.555 15.742 82.57-1.668 2.2695-3.3125 4.5703-5.0742 6.793-0.89844-0.19141-1.7266-0.53906-2.6758-0.53906h-107.38c-7.4531 0-13.5 6.0469-13.5 13.5 0 7.4531 6.0469 13.5 13.5 13.5h86.363c-3.1797 3.1094-6.5508 6.0469-9.8867 9h-153.53c-7.4531 0-13.5 6.0469-13.5 13.5 0 7.4531 6.0469 13.5 13.5 13.5h117.5c-41.977 26.34-91.402 41.832-144.5 41.832-150.45 0-272.84-122.4-272.84-272.86 0-25.176 3.707-49.43 10.117-72.59h169.81c7.4531 0 13.5-6.0469 13.5-13.5s-6.0469-13.5-13.5-13.5h-160.85c1.3086-3.3008 2.5938-6.625 4.0078-9.8633 1.3555 0.45703 2.7617 0.86328 4.2852 0.86328h80.543c7.4531 0 13.5-6.0469 13.5-13.5s-6.0469-13.5-13.5-13.5h-71.508c6.2266-10.801 13.176-21.098 20.746-30.887 9.6133 7.5469 21.383 11.484 33.254 11.484 11.578 0 23.23-3.707 33.035-11.352 11.316-8.832 18.527-21.562 20.281-35.82 1.4531-11.914-1.2461-23.617-7.2734-33.77 40.188-23.305 86.676-36.875 136.37-36.875 150.42 0 272.82 122.39 272.82 272.82 0 14.965-1.5352 29.531-3.8516 43.848-26.113-2.3867-52.426 10.762-65.508 35.34z"/>
  <path d="m524.21 422.76c-18.551 0-33.637-15.098-33.637-33.66 0-18.539 15.086-33.625 33.637-33.625s33.637 15.086 33.637 33.625c-0.011719 18.574-15.098 33.66-33.637 33.66zm0-40.273c-3.6602 0-6.6367 2.9648-6.6367 6.625 0 3.6719 2.9766 6.6602 6.6367 6.6602 3.6602 0 6.6367-2.9883 6.6367-6.6602-0.011719-3.6602-2.9883-6.625-6.6367-6.625z"/>
  <path d="m739.02 705.93c-18.551 0-33.625-15.086-33.625-33.625 0-18.551 15.07-33.637 33.625-33.637 18.551 0 33.648 15.086 33.648 33.637 0 18.539-15.098 33.625-33.648 33.625zm0-40.25c-3.6602 0-6.625 2.9766-6.625 6.6367s2.9648 6.625 6.625 6.625c3.6602 0 6.6484-2.9648 6.6484-6.625s-2.9883-6.6367-6.6484-6.6367z"/>
  <path d="m739.92 427.97c-46.922 0-85.105 38.16-85.105 85.078 0 20.102 7.2852 38.328 18.984 52.906-2.1484-0.43359-4.3789-0.67188-6.6602-0.67188-18.551 0-33.637 15.07-33.637 33.613 0 18.539 15.086 33.637 33.637 33.637 18.539 0 33.637-15.098 33.637-33.637 0-4.2461-0.86328-8.2695-2.3164-12 12.324 6.9492 26.34 11.242 41.461 11.242 46.906 0 85.094-38.172 85.094-85.094-0.003906-46.914-38.188-85.074-85.094-85.074zm-72.77 177.56c-3.6602 0-6.6367-2.9766-6.6367-6.6367 0-3.6484 2.9766-6.6133 6.6367-6.6133s6.6367 2.9648 6.6367 6.6133c-0.011718 3.6602-2.9883 6.6367-6.6367 6.6367zm72.77-34.391c-32.039 0-58.105-26.062-58.105-58.094 0-32.039 26.062-58.078 58.105-58.078 32.016 0 58.094 26.039 58.094 58.078-0.003906 32.027-26.078 58.094-58.094 58.094z"/>
 </g>
</svg>
